# xmcd CD database file
#
# Track frame offsets:
#	150
#	18675
#	37650
#	61875
#	78750
#	95850
#	115425
#	144150
#	166800
#	183450
#	195900
#	214800
#	234525
#	251475
#	274800
#
# Disc length: 3961 seconds
#
# Revision: 0
# Processed by: cddbd v1.4PL0 Copyright (c) Steve Scherf et al.
# Submitted via: CDex 1.50Beta5
#
DISCID=c60f770f
DTITLE=Моральный Кодекс - Хорошие новости
DYEAR=2001
DGENRE=Rhythmic Soul
TTITLE0=Кошки 
TTITLE1=Хорошие новости
TTITLE2=Почтальоны
TTITLE3=В Москве наступает полночь
TTITLE4=ZED
TTITLE5=Реки и горы
TTITLE6=Камни
TTITLE7=Движение
TTITLE8=Женское тело
TTITLE9=Запретный плод
TTITLE10=Антарктида
TTITLE11=Матросы
TTITLE12=Весенние флаги
TTITLE13=Шаманы-машины
TTITLE14=С тобой
EXTD=YEAR: 2001
EXTT0=
EXTT1=
EXTT2=
EXTT3=
EXTT4=
EXTT5=
EXTT6=
EXTT7=
EXTT8=
EXTT9=
EXTT10=
EXTT11=
EXTT12=
EXTT13=
EXTT14=
PLAYORDER=
